<svg id="Layer_1" data-name="Layer 1" xmlns="http://www.w3.org/2000/svg" xmlns:xlink="http://www.w3.org/1999/xlink" viewBox="0 0 200 50.59"><defs><style>.cls-1{fill:#fff;}.cls-2{fill:url(#linear-gradient);}</style><linearGradient id="linear-gradient" x1="-612" y1="-343.22" x2="-607.76" y2="-324.86" gradientTransform="translate(686.85 -156.24) rotate(-45)" gradientUnits="userSpaceOnUse"><stop offset="0" stop-color="#62c6ed"/><stop offset="0.31" stop-color="#429ecc"/><stop offset="1" stop-color="#1a4b86"/></linearGradient></defs><title>jofibo_logo_full_white_color</title><path class="cls-1" d="M54.11,39.4a5.56,5.56,0,0,1-.61,2.8,2.94,2.94,0,0,1-.48.61,3.92,3.92,0,0,1-2.31,1,7.35,7.35,0,0,1-1.08.07v6.71a20.59,20.59,0,0,0,5.52-.65,8.68,8.68,0,0,0,3.74-2.08A8.39,8.39,0,0,0,61,44.23a18.15,18.15,0,0,0,.69-5.37V12.17l-7.59,1.57Z"/><polygon class="cls-1" points="54.11 9.17 61.7 7.6 61.7 0 54.11 1.57 54.11 9.17"/><path class="cls-1" d="M92.92,16.59a15.08,15.08,0,0,0-4.77-3.11,15.5,15.5,0,0,0-6-1.15,16.47,16.47,0,0,0-3.1.29,14.73,14.73,0,0,0-2.88.86c-.46.19-.9.4-1.33.62a14.45,14.45,0,0,0-3.41,2.49,14.61,14.61,0,0,0-1.79,2.14,15.37,15.37,0,0,0-1.35,2.5A14.27,14.27,0,0,0,67.16,27a14.6,14.6,0,0,0,1.12,5.73A12.8,12.8,0,0,0,68.9,34a13.3,13.3,0,0,0,2.52,3.35,14.4,14.4,0,0,0,3.44,2.47,14.61,14.61,0,0,0,1.33.61,14,14,0,0,0,2.88.84,16.47,16.47,0,0,0,3.1.28,15.5,15.5,0,0,0,6-1.14,16,16,0,0,0,3.72-2.18c.36-.3.71-.61,1-.94a11.58,11.58,0,0,0,1-1,14.28,14.28,0,0,0,1.58-2.31,13.82,13.82,0,0,0,.63-1.28A14.22,14.22,0,0,0,97.23,27a14.44,14.44,0,0,0-1.14-5.73A14.29,14.29,0,0,0,92.92,16.59ZM87.46,32.53c-.17.17-.35.33-.54.49A7.92,7.92,0,0,1,85,34.16l-.72.27a7.67,7.67,0,0,1-1.5.3q-.39,0-.78,0a7.24,7.24,0,0,1-3-.6,6.8,6.8,0,0,1-1.27-.71,7.29,7.29,0,0,1-1.08-.92,6.87,6.87,0,0,1-.87-1.14,7.75,7.75,0,0,1-.66-1.32,8.82,8.82,0,0,1-.41-1.49,9.79,9.79,0,0,1,0-3.24,8,8,0,0,1,.43-1.49,7.48,7.48,0,0,1,1.58-2.46,7.13,7.13,0,0,1,2.41-1.61,7.86,7.86,0,0,1,1.43-.43,8.65,8.65,0,0,1,1.54-.14,6.79,6.79,0,0,1,.78,0,7.4,7.4,0,0,1,1.49.28c.24.07.47.16.7.25a7.13,7.13,0,0,1,2.41,1.61,8.36,8.36,0,0,1,.9,1.14,7.81,7.81,0,0,1,.68,1.32c.09.24.18.48.25.73A8.66,8.66,0,0,1,89.7,27a7.91,7.91,0,0,1-.6,3.11A7.63,7.63,0,0,1,87.46,32.53Z"/><path class="cls-1" d="M112.23,0a15.92,15.92,0,0,0-3.46.57,8.91,8.91,0,0,0-3.43,1.85,8,8,0,0,0-2.37,4,11.73,11.73,0,0,0-.35,2c0,.36,0,.73,0,1.11V41.26h7.59v-23h6.33V12.17h-6.33V9.63A3.69,3.69,0,0,1,111,6.92a1.59,1.59,0,0,1,.52-.35,6.08,6.08,0,0,1,2.37-.35h2.62V0h-3C113.1,0,112.66,0,112.23,0Z"/><polygon class="cls-1" points="121.85 9.17 129.43 7.6 129.43 0 121.85 1.57 121.85 9.17 121.85 9.17 121.85 9.17"/><polygon class="cls-1" points="121.85 41.26 121.85 41.26 129.43 41.26 129.43 12.17 121.85 13.74 121.85 41.26"/><path class="cls-1" d="M160.92,16.78a14.13,14.13,0,0,0-4.5-3.06A13.67,13.67,0,0,0,151,12.61a15,15,0,0,0-2.34.17,13.76,13.76,0,0,0-2.22.51,11.45,11.45,0,0,0-3.63,1.83V0h0l-7.58,1.57V41.26h7.58V38.8a11,11,0,0,0,3.63,1.8,14.89,14.89,0,0,0,2.22.5,17.91,17.91,0,0,0,2.34.16,14.13,14.13,0,0,0,9.93-4.09A14.62,14.62,0,0,0,164,32.66,13.85,13.85,0,0,0,165.13,27,14.08,14.08,0,0,0,164,21.37,14.64,14.64,0,0,0,160.92,16.78Zm-5.34,4.91c.16.17.31.35.46.53a7.84,7.84,0,0,1,1.09,1.87,6.68,6.68,0,0,1,.25.71A7.43,7.43,0,0,1,157.7,27a7.58,7.58,0,0,1-.32,2.26,6.37,6.37,0,0,1-.25.69A8.19,8.19,0,0,1,156,31.82c-.15.19-.3.37-.46.54A6.89,6.89,0,0,1,153.23,34a7.16,7.16,0,0,1-1.41.43,7.29,7.29,0,0,1-1.48.15,8.07,8.07,0,0,1-1.58-.15,7.13,7.13,0,0,1-1.45-.43,7.32,7.32,0,0,1-2.43-1.61,7.4,7.4,0,0,1-1.61-2.4A7.57,7.57,0,0,1,142.7,27a7.45,7.45,0,0,1,.14-1.49,6.81,6.81,0,0,1,.46-1.43,7.56,7.56,0,0,1,1.63-2.4,8,8,0,0,1,2.43-1.61,8.75,8.75,0,0,1,.86-.3,7.76,7.76,0,0,1,2.12-.3,7.38,7.38,0,0,1,2.2.34c.23.08.46.16.69.26a7.82,7.82,0,0,1,1.27.71A7.16,7.16,0,0,1,155.58,21.69Z"/><path class="cls-1" d="M198.85,21.23a14.26,14.26,0,0,0-3.16-4.64,15,15,0,0,0-4.78-3.11,15.27,15.27,0,0,0-4.39-1.08c-.52,0-1.05-.07-1.58-.07h0c-.54,0-1.07,0-1.58.07a15.26,15.26,0,0,0-4.4,1.08,14.66,14.66,0,0,0-4.75,3.11c-.33.33-.64.67-.94,1a13.89,13.89,0,0,0-1.57,2.32c-.23.41-.43.84-.63,1.29A14.44,14.44,0,0,0,169.93,27a14.58,14.58,0,0,0,2.46,8.23,13.52,13.52,0,0,0,1.8,2.14A14.46,14.46,0,0,0,179,40.41a15.23,15.23,0,0,0,4.4,1.05c.51,0,1,.07,1.58.07h0c.53,0,1.06,0,1.58-.07a14.94,14.94,0,0,0,4.39-1.07,15.55,15.55,0,0,0,3.72-2.18c.37-.3.72-.61,1.06-.94a13.17,13.17,0,0,0,.95-1,14.33,14.33,0,0,0,1.59-2.31c.22-.41.43-.84.62-1.28A14.06,14.06,0,0,0,200,27,14.27,14.27,0,0,0,198.85,21.23ZM190.72,32c-.15.19-.32.37-.49.55a7.8,7.8,0,0,1-5.46,2.23,7.78,7.78,0,0,1-1.53-.15,6.82,6.82,0,0,1-1.41-.45,7.13,7.13,0,0,1-2.35-1.63A7.21,7.21,0,0,1,178,30.07a8.68,8.68,0,0,1-.54-3.11,8.27,8.27,0,0,1,.57-3.11,7.22,7.22,0,0,1,.31-.69,7.51,7.51,0,0,1,1.27-1.77c.17-.17.35-.33.53-.49s.38-.29.58-.43a7.24,7.24,0,0,1,1.29-.69c.23-.09.47-.18.71-.25a8,8,0,0,1,2.27-.32,8.54,8.54,0,0,1,1.53.14,7.72,7.72,0,0,1,1.44.43,7,7,0,0,1,2.4,1.61,7.83,7.83,0,0,1,1.59,2.46,8,8,0,0,1,.43,1.49,9.48,9.48,0,0,1,.14,1.62,7.56,7.56,0,0,1,0,.83A7.63,7.63,0,0,1,190.72,32Z"/><path class="cls-1" d="M16.37,0,36.68,20.31a9.7,9.7,0,0,1,0,13.72c-.52.51-1.08,1.08-1.68,1.68a17,17,0,0,1-24.34-.26h0L0,24.79Z"/><path class="cls-2" d="M36.68,34,23,47.75a9.72,9.72,0,0,1-13.72,0l-4-4L16.1,27.17,23,34A9.7,9.7,0,0,0,36.68,34Z"/></svg>