<svg id="Layer_1" data-name="Layer 1" xmlns="http://www.w3.org/2000/svg" xmlns:xlink="http://www.w3.org/1999/xlink" viewBox="0 0 200 50.6"><defs><style>.cls-1{fill:#1a4b86;}.cls-2{fill:#fff;}.cls-3{fill:url(#linear-gradient);}</style><linearGradient id="linear-gradient" x1="12.35" y1="36.56" x2="25.44" y2="44.73" gradientUnits="userSpaceOnUse"><stop offset="0" stop-color="#62c6ed"/><stop offset="0.31" stop-color="#429ecc"/><stop offset="1" stop-color="#1a4b86"/></linearGradient></defs><title>jofibo_logo_simple_blue_color</title><path class="cls-1" d="M36.87,34.84,24.16,47.55a10.45,10.45,0,0,1-14.76,0L4.83,43l5.05-7.66L0,25.44,16.8,0,36.87,20.07A10.46,10.46,0,0,1,36.87,34.84Z"/><path class="cls-1" d="M54.11,39.41a5.49,5.49,0,0,1-.61,2.8,3.23,3.23,0,0,1-.48.61,4,4,0,0,1-2.31,1,9.13,9.13,0,0,1-1.08.06V50.6a20.16,20.16,0,0,0,5.52-.66,8.61,8.61,0,0,0,3.74-2.07A8.51,8.51,0,0,0,61,44.24a18.23,18.23,0,0,0,.69-5.38V12.18l-7.59,1.57Z"/><polygon class="cls-1" points="54.11 9.18 61.7 7.61 61.7 0.01 54.11 1.57 54.11 9.18"/><path class="cls-1" d="M92.92,16.6a15.08,15.08,0,0,0-4.77-3.11,15.32,15.32,0,0,0-6-1.15,16.47,16.47,0,0,0-3.1.29,14.08,14.08,0,0,0-2.88.86c-.46.19-.9.39-1.33.62a14.44,14.44,0,0,0-5.2,4.63,14.58,14.58,0,0,0-1.35,2.5A14.27,14.27,0,0,0,67.16,27a14.67,14.67,0,0,0,1.12,5.73c.19.44.39.87.62,1.29a14.05,14.05,0,0,0,1.56,2.32,13.3,13.3,0,0,0,1,1,14.68,14.68,0,0,0,3.44,2.47c.43.22.87.42,1.33.61a15.4,15.4,0,0,0,2.88.84,17.35,17.35,0,0,0,3.1.28,15.32,15.32,0,0,0,6-1.15,15.61,15.61,0,0,0,3.72-2.18q.54-.43,1-.93t1-1A14.73,14.73,0,0,0,95.46,34a13.82,13.82,0,0,0,.63-1.28A14.29,14.29,0,0,0,97.23,27a14.44,14.44,0,0,0-1.14-5.73A14.18,14.18,0,0,0,92.92,16.6ZM87.46,32.53a5,5,0,0,1-.54.49A7.47,7.47,0,0,1,85,34.17a6.93,6.93,0,0,1-.72.26,7.67,7.67,0,0,1-1.5.3,6.79,6.79,0,0,1-.78,0,7.24,7.24,0,0,1-3-.6,7.42,7.42,0,0,1-1.27-.71,6.81,6.81,0,0,1-1.08-.93,6.41,6.41,0,0,1-.87-1.13,8.13,8.13,0,0,1-.66-1.32,9.09,9.09,0,0,1-.41-1.49,9.85,9.85,0,0,1,0-3.25,7.91,7.91,0,0,1,.43-1.48,7.48,7.48,0,0,1,1.58-2.46,7.43,7.43,0,0,1,3.84-2,7.81,7.81,0,0,1,1.54-.14q.39,0,.78,0a8.18,8.18,0,0,1,1.49.29,5.83,5.83,0,0,1,.7.25,7.13,7.13,0,0,1,2.41,1.61,7.7,7.7,0,0,1,.9,1.13,7.91,7.91,0,0,1,.68,1.33,7.61,7.61,0,0,1,.25.72A8.79,8.79,0,0,1,89.7,27a8,8,0,0,1-.6,3.11A7.69,7.69,0,0,1,87.46,32.53Z"/><path class="cls-1" d="M112.23,0a15.32,15.32,0,0,0-3.46.58,8.89,8.89,0,0,0-3.43,1.84,8,8,0,0,0-2.37,4,12,12,0,0,0-.35,2.05c0,.36,0,.73,0,1.1V41.27h7.59v-23h6.33V12.18h-6.33V9.64A3.72,3.72,0,0,1,111,6.92a1.74,1.74,0,0,1,.52-.34,5.9,5.9,0,0,1,2.37-.35h2.62V0h-3Q112.88,0,112.23,0Z"/><polygon class="cls-1" points="121.85 9.18 129.43 7.61 129.43 0.01 121.85 1.57 121.85 9.18 121.85 9.18 121.85 9.18"/><polygon class="cls-1" points="121.85 41.27 121.85 41.27 129.43 41.27 129.43 12.18 121.85 13.75 121.85 41.27"/><path class="cls-1" d="M160.92,16.79a14.13,14.13,0,0,0-4.5-3.06A13.68,13.68,0,0,0,151,12.61a15.1,15.1,0,0,0-4.56.68,11.88,11.88,0,0,0-3.63,1.83V0h0l-7.58,1.56v39.7h7.58V38.81a11.42,11.42,0,0,0,3.63,1.8,14.87,14.87,0,0,0,2.22.49,16.31,16.31,0,0,0,2.34.17,13.83,13.83,0,0,0,5.43-1.1,13.65,13.65,0,0,0,4.5-3,14.46,14.46,0,0,0,3.06-4.5A13.89,13.89,0,0,0,165.13,27,14.16,14.16,0,0,0,164,21.37,14.71,14.71,0,0,0,160.92,16.79Zm-5.34,4.91c.16.17.31.34.46.53a7.65,7.65,0,0,1,1.09,1.87,6,6,0,0,1,.25.71A7.43,7.43,0,0,1,157.7,27a7.56,7.56,0,0,1-.32,2.25,5.83,5.83,0,0,1-.25.7A8.19,8.19,0,0,1,156,31.83c-.15.19-.3.37-.46.54A6.89,6.89,0,0,1,153.23,34a7.9,7.9,0,0,1-1.41.43,8,8,0,0,1-1.48.14,8.93,8.93,0,0,1-1.58-.14,7.83,7.83,0,0,1-1.45-.43,7.32,7.32,0,0,1-2.43-1.61,7.4,7.4,0,0,1-1.61-2.4A7.57,7.57,0,0,1,142.7,27a7.31,7.31,0,0,1,.15-1.49,7.2,7.2,0,0,1,.45-1.43,7.34,7.34,0,0,1,1.63-2.4,8,8,0,0,1,2.43-1.61,6.74,6.74,0,0,1,.86-.3,7.39,7.39,0,0,1,2.12-.3,7.07,7.07,0,0,1,2.2.34,6.46,6.46,0,0,1,.69.26,7.78,7.78,0,0,1,1.27.7A7.23,7.23,0,0,1,155.58,21.7Z"/><path class="cls-1" d="M198.85,21.24a14.15,14.15,0,0,0-3.16-4.64,15,15,0,0,0-4.78-3.11,14.65,14.65,0,0,0-4.39-1.08c-.52-.05-1.05-.07-1.58-.07h0c-.54,0-1.07,0-1.58.07a15.13,15.13,0,0,0-9.15,4.19c-.33.32-.64.67-.94,1a14.76,14.76,0,0,0-1.57,2.32c-.23.42-.43.85-.63,1.3A14.44,14.44,0,0,0,169.93,27a14.67,14.67,0,0,0,1.12,5.73,14.14,14.14,0,0,0,1.34,2.49,13.16,13.16,0,0,0,1.8,2.15A14.63,14.63,0,0,0,179,40.42a15.23,15.23,0,0,0,4.4,1c.51,0,1,.07,1.58.07h0c.53,0,1.06,0,1.58-.07a15.34,15.34,0,0,0,8.11-3.26,13.31,13.31,0,0,0,1.06-.93c.34-.33.65-.67.95-1A14.79,14.79,0,0,0,198.23,34c.22-.41.43-.84.62-1.28A14.13,14.13,0,0,0,200,27,14.27,14.27,0,0,0,198.85,21.24ZM190.72,32a6.28,6.28,0,0,1-.49.54,7.75,7.75,0,0,1-5.46,2.24,7.78,7.78,0,0,1-1.53-.15,6.82,6.82,0,0,1-1.41-.45,7.15,7.15,0,0,1-2.35-1.64A7.26,7.26,0,0,1,178,30.08a8.72,8.72,0,0,1-.54-3.11,8.24,8.24,0,0,1,.57-3.11,7.22,7.22,0,0,1,.31-.69,7.51,7.51,0,0,1,1.27-1.77c.17-.17.35-.34.53-.49a6.22,6.22,0,0,1,.58-.43,7.24,7.24,0,0,1,1.29-.69,6,6,0,0,1,.71-.25,8.3,8.3,0,0,1,3.8-.18,7.34,7.34,0,0,1,3.84,2,7.83,7.83,0,0,1,1.59,2.46,7.91,7.91,0,0,1,.43,1.48,9.51,9.51,0,0,1,.14,1.63,7.69,7.69,0,0,1,0,.83,7.48,7.48,0,0,1-.56,2.28A7.65,7.65,0,0,1,190.72,32Z"/><path class="cls-2" d="M34.82,22.14a7.54,7.54,0,0,1,0,10.64h0a7.53,7.53,0,0,1-10.65,0l-7.61-7.61-5,7.66L3.73,25.06,17.26,4.58Z"/><path class="cls-3" d="M29.71,37.9l-7.6,7.59a7.54,7.54,0,0,1-10.65,0L8.57,42.6,12,37.42l5-7.67,5.09,5.09a10.37,10.37,0,0,0,7.38,3.06Z"/></svg>